<svg width="80" height="80" viewBox="0 0 80 80" fill="none" xmlns="http://www.w3.org/2000/svg">
<path d="M35.6397 2.45968C38.3846 1.08723 41.6154 1.08723 44.3603 2.45967L74.3603 17.4597C77.6635 19.1112 79.75 22.4873 79.75 26.1803V53.8197C79.75 57.5127 77.6635 60.8888 74.3603 62.5403L44.3603 77.5403C41.6155 78.9128 38.3846 78.9128 35.6397 77.5403L5.63967 62.5403C2.33653 60.8888 0.25 57.5127 0.25 53.8197V26.1803C0.25 22.4873 2.33652 19.1112 5.63967 17.4597L35.6397 2.45968Z" fill="#FFFBFB" stroke="black" stroke-width="0.5"/>
<path d="M10.7741 30.9629C10.7976 30.6316 10.7868 29.6127 9.6969 28.8024C8.26667 27.7382 5.53476 27.4677 4.85585 28.054C4.33988 28.5021 5.0206 29.4507 5.68864 29.9833C7.41035 31.318 10.47 31.0022 10.7741 30.9629Z" fill="black"/>
<path d="M67.4258 30.9629C67.4023 30.6316 67.4132 29.6127 68.503 28.8024C69.9333 27.7382 72.6652 27.4677 73.3441 28.054C73.8601 28.5021 73.1793 29.4507 72.5113 29.9833C70.7896 31.318 67.73 31.0022 67.4258 30.9629Z" fill="black"/>
<mask id="mask0_1_172" style="mask-type:luminance" maskUnits="userSpaceOnUse" x="17" y="21" width="45" height="10">
<path d="M17.0854 21.0816H61.5782V30.6626H17.0854V21.0816Z" fill="white"/>
</mask>
<g mask="url(#mask0_1_172)">
<path d="M57.3436 30.5851H28.0528C27.7596 30.5851 27.4898 30.5923 26.9394 30.5851C25.5327 30.5851 24.8412 30.5851 24.7 30.5386C23.5159 30.1764 24.4537 26.7742 24.9462 25.2155C24.2202 26.1533 23.5884 27.1174 23.047 28.1088C22.2613 29.5746 22.0749 30.199 21.2077 30.4767C20.3405 30.7543 18.827 30.4385 18.0539 29.8832C16.9876 29.111 16.8228 27.7918 17.7371 26.6729L19.2035 23.8105C19.7883 22.6534 21.5462 21.1102 25.6378 21.1102H54.3908C57.8251 21.1102 59.2662 22.6772 59.842 23.8498L61.2468 26.7193C62.1738 28.6105 60.1805 30.5851 57.3436 30.5851Z" fill="black"/>
</g>
<path d="M25.732 39.2724C25.6614 39.3499 22.8715 38.5085 20.0581 37.0666C15.686 34.8287 13.2365 32.1438 13.3542 32.0747C13.4718 32.0044 14.444 32.9303 17.0112 34.5665C17.8784 35.1147 19.3195 36.0323 21.3019 37.0893C23.9849 38.524 25.779 39.2188 25.732 39.2724Z" fill="black"/>
<path d="M52.0697 39.2724C52.1403 39.3499 54.9302 38.5085 57.7436 37.0666C62.1157 34.8287 64.5652 32.1438 64.4475 32.0747C64.3299 32.0044 63.345 32.9303 60.7796 34.5665C59.9233 35.1147 58.4695 36.0323 56.4998 37.0893C53.8168 38.524 52.0118 39.2188 52.0697 39.2724Z" fill="black"/>
<path d="M21.5932 39.7514C21.4067 40.2376 17.7497 40.2376 14.5959 39.4737C13.6346 39.2414 9.50864 38.2463 8.54731 35.9238C8.4423 35.6771 8.04401 34.7285 8.60705 34.4664C9.39096 34.1029 11.2792 35.4769 15.0069 37.1119C19.2722 38.9721 21.7579 39.3343 21.5932 39.7514Z" fill="black"/>
<path d="M56.7352 39.7514C56.9217 40.2376 60.5788 40.2376 63.7325 39.4737C64.6938 39.2414 68.8198 38.2463 69.7811 35.9238C69.8861 35.6771 70.2844 34.7285 69.7232 34.4664C68.9375 34.1029 67.0383 35.4769 63.3215 37.1119C59.0562 38.9721 56.5705 39.3343 56.7352 39.7514Z" fill="black"/>
<path d="M54.32 41.0623C53.9561 40.8001 53.4872 40.4688 52.7033 40.3222C52.334 40.2531 51.9593 40.2305 51.5773 40.2531L39.3044 40.3139L27.0443 40.2531C26.6623 40.2305 26.2875 40.2531 25.9182 40.3222C25.1343 40.4688 24.6654 40.8001 24.3015 41.0623C23.5592 41.608 23.0668 42.2384 22.8242 42.9534C23.1247 42.5935 23.4959 42.2694 23.9376 41.981C24.383 41.695 24.9352 41.3399 25.8024 41.1707C26.0685 41.1147 26.3419 41.0813 26.6225 41.0706H51.9991C52.2797 41.0813 52.5531 41.1147 52.8192 41.1707C53.6864 41.3399 54.2386 41.695 54.6839 41.981C55.1257 42.2694 55.4968 42.5935 55.7973 42.9534C55.6217 42.4827 55.247 41.726 54.32 41.0623Z" fill="black"/>
<path d="M66.7921 45.1985C65.8851 45.5632 64.9129 45.817 63.8738 45.9624C62.7187 46.1161 61.5582 46.1363 60.3923 46.0231C59.4545 45.9314 59.641 45.8611 56.4529 45.2366C55.153 44.9816 54.5085 44.866 53.6757 44.7886C52.9569 44.7195 52.2346 44.6885 51.5068 44.6968H27.115C26.3836 44.6885 25.6577 44.7195 24.9353 44.7886C24.1134 44.866 23.4689 44.9816 22.169 45.2366C18.9808 45.8611 19.1565 45.9314 18.2295 46.0231C17.0636 46.1363 15.9031 46.1161 14.7481 45.9624C13.7089 45.817 12.7367 45.5632 11.8297 45.1985C10.4864 44.6384 9.44719 43.896 8.71216 42.9689C9.12855 43.933 9.89798 44.7528 11.0204 45.4297C12.6734 46.4176 14.4675 46.6488 15.3691 46.7644C16.6889 46.8502 18.0032 46.8156 19.3085 46.6643C20.3658 46.5201 21.4014 46.3246 22.4152 46.078L22.7429 45.9933C22.8986 45.9469 23.0597 45.9087 23.2226 45.8766C24.0971 45.6966 24.9914 45.6025 25.9075 45.5918H52.7143C53.6304 45.6025 54.5248 45.6966 55.3992 45.8766C55.5621 45.9099 55.7233 45.9481 55.879 45.9933L56.2066 46.078C57.2205 46.3246 58.256 46.5201 59.3133 46.6643C60.6186 46.8156 61.933 46.8502 63.2528 46.7644C64.1544 46.6488 65.9485 46.4176 67.5887 45.4297C68.7184 44.7552 69.4933 43.9341 69.9097 42.9689C69.1747 43.896 68.1355 44.6384 66.7921 45.1985Z" fill="black"/>
<path d="M7.53494 49.3C6.84161 49.3 6.23161 49.1533 5.70494 48.86C5.18494 48.56 4.78161 48.14 4.49494 47.6C4.20828 47.0533 4.06494 46.4233 4.06494 45.71C4.06494 44.99 4.20828 44.3567 4.49494 43.81C4.78161 43.2633 5.18494 42.8433 5.70494 42.55C6.23161 42.25 6.83828 42.1 7.52494 42.1C8.09828 42.1 8.62494 42.1967 9.10494 42.39C9.59161 42.5833 9.97161 42.8533 10.2449 43.2C10.2983 43.26 10.3249 43.3333 10.3249 43.42C10.3249 43.5267 10.2783 43.6133 10.1849 43.68C10.1249 43.72 10.0583 43.74 9.98494 43.74C9.85828 43.74 9.75161 43.69 9.66494 43.59C9.45161 43.3167 9.16161 43.1067 8.79494 42.96C8.42828 42.8133 8.00494 42.74 7.52494 42.74C6.97161 42.74 6.49161 42.86 6.08494 43.1C5.67828 43.34 5.36494 43.6833 5.14494 44.13C4.93161 44.5767 4.82494 45.1033 4.82494 45.71C4.82494 46.31 4.93161 46.8333 5.14494 47.28C5.36494 47.72 5.67828 48.06 6.08494 48.3C6.49828 48.54 6.98161 48.66 7.53494 48.66C8.04828 48.66 8.49494 48.5867 8.87494 48.44C9.26161 48.2867 9.56494 48.0767 9.78494 47.81C9.88494 47.7033 9.99161 47.65 10.1049 47.65C10.1849 47.65 10.2516 47.6733 10.3049 47.72C10.3983 47.8 10.4449 47.8867 10.4449 47.98C10.4449 48.06 10.4149 48.1367 10.3549 48.21C10.0816 48.5433 9.69161 48.81 9.18494 49.01C8.68494 49.2033 8.13494 49.3 7.53494 49.3ZM12.1056 49.3C11.9923 49.3 11.9023 49.2667 11.8356 49.2C11.769 49.1267 11.7356 49.0267 11.7356 48.9V44.99C11.7356 44.0833 11.989 43.3767 12.4956 42.87C13.009 42.3567 13.719 42.1 14.6256 42.1C15.5256 42.1 16.2323 42.3567 16.7456 42.87C17.259 43.3833 17.5156 44.09 17.5156 44.99V48.9C17.5156 49.0267 17.4823 49.1267 17.4156 49.2C17.349 49.2667 17.2556 49.3 17.1356 49.3C17.0223 49.3 16.929 49.2667 16.8556 49.2C16.789 49.1267 16.7556 49.0267 16.7556 48.9V46.65H12.4856V48.9C12.4856 49.0267 12.4523 49.1267 12.3856 49.2C12.319 49.2667 12.2256 49.3 12.1056 49.3ZM16.7556 46.03V44.96C16.7556 44.2467 16.5723 43.7 16.2056 43.32C15.839 42.9333 15.3123 42.74 14.6256 42.74C13.9323 42.74 13.4023 42.93 13.0356 43.31C12.669 43.69 12.4856 44.24 12.4856 44.96V46.03H16.7556ZM19.021 43.45C19.021 43.07 19.131 42.7667 19.351 42.54C19.5777 42.3133 19.9044 42.2 20.331 42.2H22.201C24.0144 42.2 24.921 42.9533 24.921 44.46C24.921 45.1867 24.701 45.7367 24.261 46.11C23.821 46.4833 23.1577 46.67 22.271 46.67L24.211 48.68C24.271 48.74 24.301 48.8167 24.301 48.91C24.301 49.03 24.251 49.1267 24.151 49.2C24.071 49.26 23.9877 49.29 23.901 49.29C23.7677 49.29 23.641 49.2233 23.521 49.09L21.221 46.67H19.871V48.87C19.871 49.0033 19.831 49.11 19.751 49.19C19.6777 49.2633 19.5744 49.3 19.441 49.3C19.3077 49.3 19.2044 49.2633 19.131 49.19C19.0577 49.11 19.021 49.0033 19.021 48.87V43.45ZM22.251 45.98C22.8644 45.98 23.3177 45.8667 23.611 45.64C23.911 45.4067 24.061 45.0133 24.061 44.46C24.061 43.9 23.911 43.5 23.611 43.26C23.311 43.0133 22.8577 42.89 22.251 42.89H20.381C20.2277 42.89 20.1044 42.94 20.011 43.04C19.9177 43.14 19.871 43.2767 19.871 43.45V45.98H22.251Z" fill="#9D31F2"/>
<path d="M32.1248 49.3C31.4315 49.3 30.8215 49.1533 30.2948 48.86C29.7748 48.56 29.3715 48.14 29.0848 47.6C28.7981 47.0533 28.6548 46.4233 28.6548 45.71C28.6548 44.99 28.7981 44.3567 29.0848 43.81C29.3715 43.2633 29.7748 42.8433 30.2948 42.55C30.8215 42.25 31.4281 42.1 32.1148 42.1C32.6881 42.1 33.2148 42.1967 33.6948 42.39C34.1815 42.5833 34.5615 42.8533 34.8348 43.2C34.8881 43.26 34.9148 43.3333 34.9148 43.42C34.9148 43.5267 34.8681 43.6133 34.7748 43.68C34.7148 43.72 34.6481 43.74 34.5748 43.74C34.4481 43.74 34.3415 43.69 34.2548 43.59C34.0415 43.3167 33.7515 43.1067 33.3848 42.96C33.0181 42.8133 32.5948 42.74 32.1148 42.74C31.5615 42.74 31.0815 42.86 30.6748 43.1C30.2681 43.34 29.9548 43.6833 29.7348 44.13C29.5215 44.5767 29.4148 45.1033 29.4148 45.71C29.4148 46.31 29.5215 46.8333 29.7348 47.28C29.9548 47.72 30.2681 48.06 30.6748 48.3C31.0881 48.54 31.5715 48.66 32.1248 48.66C32.6381 48.66 33.0848 48.5867 33.4648 48.44C33.8515 48.2867 34.1548 48.0767 34.3748 47.81C34.4748 47.7033 34.5815 47.65 34.6948 47.65C34.7748 47.65 34.8415 47.6733 34.8948 47.72C34.9881 47.8 35.0348 47.8867 35.0348 47.98C35.0348 48.06 35.0048 48.1367 34.9448 48.21C34.6715 48.5433 34.2815 48.81 33.7748 49.01C33.2748 49.2033 32.7248 49.3 32.1248 49.3ZM39.6755 49.3C39.0022 49.3 38.3955 49.1533 37.8555 48.86C37.3155 48.56 36.8888 48.1367 36.5755 47.59C36.2688 47.0433 36.1155 46.4133 36.1155 45.7C36.1155 44.98 36.2688 44.35 36.5755 43.81C36.8888 43.2633 37.3155 42.8433 37.8555 42.55C38.3955 42.25 39.0022 42.1 39.6755 42.1C40.3488 42.1 40.9555 42.25 41.4955 42.55C42.0355 42.8433 42.4588 43.2633 42.7655 43.81C43.0788 44.35 43.2355 44.98 43.2355 45.7C43.2355 46.4133 43.0788 47.0433 42.7655 47.59C42.4588 48.1367 42.0355 48.56 41.4955 48.86C40.9555 49.1533 40.3488 49.3 39.6755 49.3ZM39.6755 48.66C40.2155 48.66 40.6955 48.5433 41.1155 48.31C41.5422 48.0767 41.8755 47.74 42.1155 47.3C42.3622 46.8533 42.4855 46.32 42.4855 45.7C42.4855 45.0733 42.3588 44.5367 42.1055 44.09C41.8588 43.6433 41.5188 43.3067 41.0855 43.08C40.6588 42.8533 40.1822 42.74 39.6555 42.74C39.1222 42.74 38.6422 42.8567 38.2155 43.09C37.7955 43.3233 37.4655 43.6633 37.2255 44.11C36.9855 44.5567 36.8655 45.0867 36.8655 45.7C36.8655 46.32 36.9855 46.8533 37.2255 47.3C37.4722 47.74 37.8055 48.0767 38.2255 48.31C38.6522 48.5433 39.1355 48.66 39.6755 48.66ZM44.6347 49.3C44.5214 49.3 44.4314 49.2667 44.3647 49.2C44.298 49.1267 44.2647 49.0267 44.2647 48.9V44.82C44.2647 44.2667 44.3814 43.7867 44.6147 43.38C44.8547 42.9667 45.1947 42.65 45.6347 42.43C46.0747 42.21 46.5914 42.1 47.1847 42.1C47.778 42.1 48.2914 42.21 48.7247 42.43C49.1647 42.65 49.5014 42.9667 49.7347 43.38C49.9747 43.7867 50.0947 44.2667 50.0947 44.82V48.9C50.0947 49.0267 50.0614 49.1267 49.9947 49.2C49.9347 49.2667 49.8447 49.3 49.7247 49.3C49.6114 49.3 49.518 49.2667 49.4447 49.2C49.378 49.1267 49.3447 49.0267 49.3447 48.9V44.79C49.3447 44.1433 49.1547 43.64 48.7747 43.28C48.3947 42.92 47.8647 42.74 47.1847 42.74C46.518 42.74 45.988 42.9233 45.5947 43.29C45.208 43.6567 45.0147 44.1567 45.0147 44.79V48.9C45.0147 49.0267 44.9814 49.1267 44.9147 49.2C44.848 49.2667 44.7547 49.3 44.6347 49.3ZM51.9492 49.3C51.8358 49.3 51.7458 49.2667 51.6792 49.2C51.6125 49.1267 51.5792 49.0267 51.5792 48.9V44.82C51.5792 44.2667 51.6958 43.7867 51.9292 43.38C52.1692 42.9667 52.5092 42.65 52.9492 42.43C53.3892 42.21 53.9058 42.1 54.4992 42.1C55.0925 42.1 55.6058 42.21 56.0392 42.43C56.4792 42.65 56.8158 42.9667 57.0492 43.38C57.2892 43.7867 57.4092 44.2667 57.4092 44.82V48.9C57.4092 49.0267 57.3758 49.1267 57.3092 49.2C57.2492 49.2667 57.1592 49.3 57.0392 49.3C56.9258 49.3 56.8325 49.2667 56.7592 49.2C56.6925 49.1267 56.6592 49.0267 56.6592 48.9V44.79C56.6592 44.1433 56.4692 43.64 56.0892 43.28C55.7092 42.92 55.1792 42.74 54.4992 42.74C53.8325 42.74 53.3025 42.9233 52.9092 43.29C52.5225 43.6567 52.3292 44.1567 52.3292 44.79V48.9C52.3292 49.0267 52.2958 49.1267 52.2292 49.2C52.1625 49.2667 52.0692 49.3 51.9492 49.3ZM60.2436 49.2C59.8369 49.2 59.5203 49.0933 59.2936 48.88C59.0669 48.6667 58.9536 48.3667 58.9536 47.98V43.4C58.9536 43.0267 59.0636 42.7333 59.2836 42.52C59.5103 42.3067 59.8236 42.2 60.2236 42.2H63.3236C63.5836 42.2 63.7136 42.3067 63.7136 42.52C63.7136 42.6133 63.6803 42.6867 63.6136 42.74C63.5469 42.7933 63.4503 42.82 63.3236 42.82H60.2336C60.0736 42.82 59.9436 42.8733 59.8436 42.98C59.7503 43.0867 59.7036 43.2267 59.7036 43.4V45.31H62.5636C62.8236 45.31 62.9536 45.4167 62.9536 45.63C62.9536 45.73 62.9169 45.8067 62.8436 45.86C62.7769 45.9133 62.6836 45.94 62.5636 45.94H59.7036V48C59.7036 48.1733 59.7503 48.3133 59.8436 48.42C59.9436 48.5267 60.0736 48.58 60.2336 48.58H63.5436C63.8036 48.58 63.9336 48.6833 63.9336 48.89C63.9336 48.99 63.8969 49.0667 63.8236 49.12C63.7569 49.1733 63.6636 49.2 63.5436 49.2H60.2436ZM68.0525 49.3C67.3592 49.3 66.7492 49.1533 66.2225 48.86C65.7025 48.56 65.2992 48.14 65.0125 47.6C64.7259 47.0533 64.5825 46.4233 64.5825 45.71C64.5825 44.99 64.7259 44.3567 65.0125 43.81C65.2992 43.2633 65.7025 42.8433 66.2225 42.55C66.7492 42.25 67.3559 42.1 68.0425 42.1C68.6159 42.1 69.1425 42.1967 69.6225 42.39C70.1092 42.5833 70.4892 42.8533 70.7625 43.2C70.8159 43.26 70.8425 43.3333 70.8425 43.42C70.8425 43.5267 70.7959 43.6133 70.7025 43.68C70.6425 43.72 70.5759 43.74 70.5025 43.74C70.3759 43.74 70.2692 43.69 70.1825 43.59C69.9692 43.3167 69.6792 43.1067 69.3125 42.96C68.9459 42.8133 68.5225 42.74 68.0425 42.74C67.4892 42.74 67.0092 42.86 66.6025 43.1C66.1959 43.34 65.8825 43.6833 65.6625 44.13C65.4492 44.5767 65.3425 45.1033 65.3425 45.71C65.3425 46.31 65.4492 46.8333 65.6625 47.28C65.8825 47.72 66.1959 48.06 66.6025 48.3C67.0159 48.54 67.4992 48.66 68.0525 48.66C68.5659 48.66 69.0125 48.5867 69.3925 48.44C69.7792 48.2867 70.0825 48.0767 70.3025 47.81C70.4025 47.7033 70.5092 47.65 70.6225 47.65C70.7025 47.65 70.7692 47.6733 70.8225 47.72C70.9159 47.8 70.9625 47.8867 70.9625 47.98C70.9625 48.06 70.9325 48.1367 70.8725 48.21C70.5992 48.5433 70.2092 48.81 69.7025 49.01C69.2025 49.2033 68.6525 49.3 68.0525 49.3ZM74.5831 49.3C74.4631 49.3 74.3697 49.2667 74.3031 49.2C74.2431 49.1267 74.2131 49.0267 74.2131 48.9V42.82H71.9231C71.8031 42.82 71.7064 42.7967 71.6331 42.75C71.5664 42.6967 71.5331 42.62 71.5331 42.52C71.5331 42.3067 71.6631 42.2 71.9231 42.2H77.2631C77.5231 42.2 77.6531 42.3067 77.6531 42.52C77.6531 42.6133 77.6197 42.6867 77.5531 42.74C77.4864 42.7933 77.3897 42.82 77.2631 42.82H74.9731V48.9C74.9731 49.0267 74.9364 49.1267 74.8631 49.2C74.7964 49.2667 74.7031 49.3 74.5831 49.3Z" fill="black"/>
<path d="M35.4343 66.25C35.3776 66.25 35.3326 66.2333 35.2993 66.2C35.266 66.1633 35.2493 66.1133 35.2493 66.05V63.3C35.2493 63.1133 35.3043 62.9667 35.4143 62.86C35.5276 62.7533 35.6843 62.7 35.8843 62.7H36.7343C37.6843 62.7 38.1593 63.0983 38.1593 63.895C38.1593 64.2617 38.0377 64.545 37.7943 64.745C37.5543 64.9417 37.2077 65.04 36.7543 65.04H35.6243V66.05C35.6243 66.1133 35.6076 66.1633 35.5743 66.2C35.541 66.2333 35.4943 66.25 35.4343 66.25ZM36.7543 64.725C37.0777 64.725 37.3277 64.6617 37.5043 64.535C37.6843 64.4083 37.7743 64.195 37.7743 63.895C37.7743 63.5817 37.6877 63.3567 37.5143 63.22C37.341 63.08 37.0893 63.01 36.7593 63.01H35.8893C35.8093 63.01 35.7443 63.0367 35.6943 63.09C35.6476 63.1433 35.6243 63.2133 35.6243 63.3V64.725H36.7543ZM38.9683 66.25C38.9116 66.25 38.8666 66.2333 38.8333 66.2C38.8033 66.1633 38.7883 66.1133 38.7883 66.05V63.9C38.7883 63.8367 38.8033 63.7883 38.8333 63.755C38.8633 63.7183 38.9083 63.7 38.9683 63.7C39.025 63.7 39.0683 63.7183 39.0983 63.755C39.1316 63.7883 39.1483 63.8367 39.1483 63.9V64.2C39.375 63.9 39.6883 63.75 40.0883 63.75H40.2133C40.2766 63.75 40.3266 63.765 40.3633 63.795C40.4 63.8217 40.4183 63.86 40.4183 63.91C40.4183 63.96 40.4 63.9983 40.3633 64.025C40.3266 64.0517 40.2766 64.065 40.2133 64.065H40.0733C39.79 64.065 39.565 64.1467 39.3983 64.31C39.235 64.47 39.1533 64.6883 39.1533 64.965V66.05C39.1533 66.11 39.1366 66.1583 39.1033 66.195C39.0733 66.2317 39.0283 66.25 38.9683 66.25ZM41.9619 66.25C41.6719 66.25 41.4236 66.1917 41.2169 66.075C41.0102 65.9583 40.8536 65.8033 40.7469 65.61C40.6436 65.4133 40.5919 65.2017 40.5919 64.975C40.5919 64.7483 40.6436 64.5383 40.7469 64.345C40.8536 64.1483 41.0102 63.9917 41.2169 63.875C41.4236 63.7583 41.6719 63.7 41.9619 63.7C42.2519 63.7 42.4986 63.7583 42.7019 63.875C42.9086 63.9917 43.0636 64.1483 43.1669 64.345C43.2736 64.5383 43.3269 64.7483 43.3269 64.975C43.3269 65.2017 43.2736 65.4133 43.1669 65.61C43.0636 65.8033 42.9086 65.9583 42.7019 66.075C42.4986 66.1917 42.2519 66.25 41.9619 66.25ZM41.9619 65.935C42.2619 65.935 42.5019 65.85 42.6819 65.68C42.8652 65.51 42.9569 65.275 42.9569 64.975C42.9569 64.675 42.8652 64.44 42.6819 64.27C42.5019 64.1 42.2619 64.015 41.9619 64.015C41.6586 64.015 41.4152 64.1 41.2319 64.27C41.0519 64.44 40.9619 64.675 40.9619 64.975C40.9619 65.275 41.0519 65.51 41.2319 65.68C41.4152 65.85 41.6586 65.935 41.9619 65.935Z" fill="#9D31F2"/>
</svg>
